<?xml version="1.0" standalone="no"?><!DOCTYPE svg PUBLIC "-//W3C//DTD SVG 1.1//EN" "http://www.w3.org/Graphics/SVG/1.1/DTD/svg11.dtd"><svg t="1764342222423" class="icon" viewBox="0 0 1024 1024" version="1.1" xmlns="http://www.w3.org/2000/svg" p-id="27496" xmlns:xlink="http://www.w3.org/1999/xlink" width="200" height="200"><path d="M946.037818 443.463224h45.634319v45.634319h-45.634319zM946.037818 397.743607h45.634319v45.719617h-45.634319zM900.318201 489.097543h45.719617v45.719617h-45.719617z" fill="#330D1A" p-id="27497"></path><path d="M900.318201 443.463224h45.719617v45.634319h-45.719617zM900.318201 397.743607h45.719617v45.719617h-45.719617z" fill="#FCE3A0" p-id="27498"></path><path d="M900.318201 352.02399h45.719617v45.719617h-45.719617zM854.598584 534.81716h45.719617v45.719616h-45.719617z" fill="#330D1A" p-id="27499"></path><path d="M854.598584 489.097543h45.719617v45.719617h-45.719617z" fill="#FCE3A0" p-id="27500"></path><path d="M854.598584 443.463224h45.719617v45.634319h-45.719617z" fill="#FCD872" p-id="27501"></path><path d="M854.598584 397.743607h45.719617v45.719617h-45.719617z" fill="#FCE3A0" p-id="27502"></path><path d="M854.598584 352.02399h45.719617v45.719617h-45.719617zM808.964265 763.244648h45.634319v45.719617h-45.634319zM808.964265 717.610329h45.634319v45.634319h-45.634319zM808.964265 671.890712h45.634319v45.719617h-45.634319zM808.964265 626.171095h45.634319v45.719617h-45.634319zM808.964265 580.536776h45.634319v45.634319h-45.634319z" fill="#330D1A" p-id="27503"></path><path d="M808.964265 534.81716h45.634319v45.719616h-45.634319z" fill="#FCE3A0" p-id="27504"></path><path d="M808.964265 489.097543h45.634319v45.719617h-45.634319zM808.964265 443.463224h45.634319v45.634319h-45.634319zM808.964265 397.743607h45.634319v45.719617h-45.634319z" fill="#FCD872" p-id="27505"></path><path d="M808.964265 352.02399h45.634319v45.719617h-45.634319z" fill="#FCE3A0" p-id="27506"></path><path d="M808.964265 306.389671h45.634319v45.634319h-45.634319zM763.244648 854.598584h45.719617v45.719617h-45.719617zM763.244648 808.964265h45.719617v45.634319h-45.719617z" fill="#330D1A" p-id="27507"></path><path d="M763.244648 763.244648h45.719617v45.719617h-45.719617zM763.244648 717.610329h45.719617v45.634319h-45.719617zM763.244648 671.890712h45.719617v45.719617h-45.719617zM763.244648 626.171095h45.719617v45.719617h-45.719617zM763.244648 580.536776h45.719617v45.634319h-45.719617zM763.244648 534.81716h45.719617v45.719616h-45.719617zM763.244648 489.097543h45.719617v45.719617h-45.719617zM763.244648 443.463224h45.719617v45.634319h-45.719617zM763.244648 397.743607h45.719617v45.719617h-45.719617z" fill="#FCD872" p-id="27508"></path><path d="M763.244648 352.02399h45.719617v45.719617h-45.719617z" fill="#FCE3A0" p-id="27509"></path><path d="M763.244648 306.389671h45.719617v45.634319h-45.719617z" fill="#330D1A" p-id="27510"></path><path d="M717.525031 900.318201h45.719617v45.719617h-45.719617z" fill="#592232" p-id="27511"></path><path d="M717.525031 854.598584h45.719617v45.719617h-45.719617zM717.525031 808.964265h45.719617v45.634319h-45.719617z" fill="#FCE3A0" p-id="27512"></path><path d="M717.525031 763.244648h45.719617v45.719617h-45.719617z" fill="#FCD872" p-id="27513"></path><path d="M717.525031 717.610329h45.719617v45.634319h-45.719617z" fill="#FFFFFF" p-id="27514"></path><path d="M717.525031 671.890712h45.719617v45.719617h-45.719617zM717.525031 626.171095h45.719617v45.719617h-45.719617zM717.525031 580.536776h45.719617v45.634319h-45.719617zM717.525031 534.81716h45.719617v45.719616h-45.719617zM717.525031 489.097543h45.719617v45.719617h-45.719617zM717.525031 443.463224h45.719617v45.634319h-45.719617zM717.525031 397.743607h45.719617v45.719617h-45.719617z" fill="#FCD872" p-id="27515"></path><path d="M717.525031 352.02399h45.719617v45.719617h-45.719617z" fill="#FCE3A0" p-id="27516"></path><path d="M717.525031 306.389671h45.719617v45.634319h-45.719617zM671.890712 900.318201h45.634319v45.719617h-45.634319z" fill="#592232" p-id="27517"></path><path d="M671.890712 854.598584h45.634319v45.719617h-45.634319zM671.890712 808.964265h45.634319v45.634319h-45.634319z" fill="#FCE3A0" p-id="27518"></path><path d="M671.890712 763.244648h45.634319v45.719617h-45.634319zM671.890712 717.610329h45.634319v45.634319h-45.634319zM671.890712 671.890712h45.634319v45.719617h-45.634319z" fill="#FFFFFF" p-id="27519"></path><path d="M671.890712 626.171095h45.634319v45.719617h-45.634319zM671.890712 580.536776h45.634319v45.634319h-45.634319zM671.890712 534.81716h45.634319v45.719616h-45.634319zM671.890712 489.097543h45.634319v45.719617h-45.634319zM671.890712 443.463224h45.634319v45.634319h-45.634319zM671.890712 397.743607h45.634319v45.719617h-45.634319zM671.890712 352.02399h45.634319v45.719617h-45.634319z" fill="#FCD872" p-id="27520"></path><path d="M671.890712 306.389671h45.634319v45.634319h-45.634319z" fill="#FBD39F" p-id="27521"></path><path d="M671.890712 260.670054h45.634319v45.719617h-45.634319z" fill="#592232" p-id="27522"></path><path d="M626.171095 854.598584h45.719617v45.719617h-45.719617z" fill="#330D1A" p-id="27523"></path><path d="M626.171095 808.964265h45.719617v45.634319h-45.719617z" fill="#FCE3A0" p-id="27524"></path><path d="M626.171095 763.244648h45.719617v45.719617h-45.719617z" fill="#FCD872" p-id="27525"></path><path d="M626.171095 717.610329h45.719617v45.634319h-45.719617z" fill="#FFFFFF" p-id="27526"></path><path d="M626.171095 671.890712h45.719617v45.719617h-45.719617zM626.171095 626.171095h45.719617v45.719617h-45.719617zM626.171095 580.536776h45.719617v45.634319h-45.719617zM626.171095 534.81716h45.719617v45.719616h-45.719617zM626.171095 489.097543h45.719617v45.719617h-45.719617zM626.171095 443.463224h45.719617v45.634319h-45.719617zM626.171095 397.743607h45.719617v45.719617h-45.719617zM626.171095 352.02399h45.719617v45.719617h-45.719617z" fill="#FCD872" p-id="27527"></path><path d="M626.171095 306.389671h45.719617v45.634319h-45.719617z" fill="#FAC879" p-id="27528"></path><path d="M626.171095 260.670054h45.719617v45.719617h-45.719617z" fill="#FBD39F" p-id="27529"></path><path d="M626.171095 214.950437h45.719617v45.719617h-45.719617z" fill="#592232" p-id="27530"></path><path d="M626.171095 169.316118h45.719617v45.634319h-45.719617z" fill="#592232" p-id="27531"></path><path d="M580.536776 854.598584h45.634319v45.719617h-45.634319z" fill="#330D1A" p-id="27532"></path><path d="M580.536776 808.964265h45.634319v45.634319h-45.634319z" fill="#FCE3A0" p-id="27533"></path><path d="M580.536776 763.244648h45.634319v45.719617h-45.634319zM580.536776 717.610329h45.634319v45.634319h-45.634319zM580.536776 671.890712h45.634319v45.719617h-45.634319zM580.536776 626.171095h45.634319v45.719617h-45.634319zM580.536776 580.536776h45.634319v45.634319h-45.634319zM580.536776 534.81716h45.634319v45.719616h-45.634319zM580.536776 489.097543h45.634319v45.719617h-45.634319zM580.536776 443.463224h45.634319v45.634319h-45.634319zM580.536776 397.743607h45.634319v45.719617h-45.634319zM580.536776 352.02399h45.634319v45.719617h-45.634319zM580.536776 306.389671h45.634319v45.634319h-45.634319z" fill="#FCD872" p-id="27534"></path><path d="M580.536776 260.670054h45.634319v45.719617h-45.634319z" fill="#FAC879" p-id="27535"></path><path d="M580.536776 214.950437h45.634319v45.719617h-45.634319z" fill="#FBD39F" p-id="27536"></path><path d="M580.536776 169.316118h45.634319v45.634319h-45.634319z" fill="#FBD39F" p-id="27537"></path><path d="M580.536776 123.596501h45.634319v45.719617h-45.634319z" fill="#592232" p-id="27538"></path><path d="M534.81716 808.964265h45.719616v45.634319H534.81716z" fill="#330D1A" p-id="27539"></path><path d="M534.81716 763.244648h45.719616v45.719617H534.81716z" fill="#FCE3A0" p-id="27540"></path><path d="M534.81716 717.610329h45.719616v45.634319H534.81716zM534.81716 671.890712h45.719616v45.719617H534.81716zM534.81716 626.171095h45.719616v45.719617H534.81716zM534.81716 580.536776h45.719616v45.634319H534.81716zM534.81716 534.81716h45.719616v45.719616H534.81716zM534.81716 489.097543h45.719616v45.719617H534.81716zM534.81716 443.463224h45.719616v45.634319H534.81716zM534.81716 397.743607h45.719616v45.719617H534.81716zM534.81716 352.02399h45.719616v45.719617H534.81716zM534.81716 306.389671h45.719616v45.634319H534.81716zM534.81716 260.670054h45.719616v45.719617H534.81716z" fill="#FCD872" p-id="27541"></path><path d="M534.81716 214.950437h45.719616v45.719617H534.81716z" fill="#FAC879" p-id="27542"></path><path d="M534.81716 169.316118h45.719616v45.634319H534.81716z" fill="#FAC879" p-id="27543"></path><path d="M534.81716 123.596501h45.719616v45.719617H534.81716z" fill="#FBD39F" p-id="27544"></path><path d="M534.81716 77.962182h45.719616v45.634319H534.81716z" fill="#592232" p-id="27545"></path><path d="M489.097543 763.244648h45.719617v45.719617h-45.719617z" fill="#330D1A" p-id="27546"></path><path d="M489.097543 717.610329h45.719617v45.634319h-45.719617zM489.097543 671.890712h45.719617v45.719617h-45.719617zM489.097543 626.171095h45.719617v45.719617h-45.719617zM489.097543 580.536776h45.719617v45.634319h-45.719617zM489.097543 534.81716h45.719617v45.719616h-45.719617zM489.097543 489.097543h45.719617v45.719617h-45.719617zM489.097543 443.463224h45.719617v45.634319h-45.719617zM489.097543 397.743607h45.719617v45.719617h-45.719617zM489.097543 352.02399h45.719617v45.719617h-45.719617zM489.097543 306.389671h45.719617v45.634319h-45.719617zM489.097543 260.670054h45.719617v45.719617h-45.719617zM489.097543 214.950437h45.719617v45.719617h-45.719617z" fill="#FCD872" p-id="27547"></path><path d="M489.097543 169.316118h45.719617v45.634319h-45.719617z" fill="#FCD872" p-id="27548"></path><path d="M489.097543 123.596501h45.719617v45.719617h-45.719617z" fill="#FBD39F" p-id="27549"></path><path d="M489.097543 77.962182h45.719617v45.634319h-45.719617z" fill="#592232" p-id="27550"></path><path d="M443.463224 808.964265h45.634319v45.634319h-45.634319z" fill="#330D1A" p-id="27551"></path><path d="M443.463224 763.244648h45.634319v45.719617h-45.634319z" fill="#FCE3A0" p-id="27552"></path><path d="M443.463224 717.610329h45.634319v45.634319h-45.634319zM443.463224 671.890712h45.634319v45.719617h-45.634319zM443.463224 626.171095h45.634319v45.719617h-45.634319zM443.463224 580.536776h45.634319v45.634319h-45.634319zM443.463224 534.81716h45.634319v45.719616h-45.634319zM443.463224 489.097543h45.634319v45.719617h-45.634319zM443.463224 443.463224h45.634319v45.634319h-45.634319zM443.463224 397.743607h45.634319v45.719617h-45.634319zM443.463224 352.02399h45.634319v45.719617h-45.634319zM443.463224 306.389671h45.634319v45.634319h-45.634319zM443.463224 260.670054h45.634319v45.719617h-45.634319zM443.463224 214.950437h45.634319v45.719617h-45.634319z" fill="#FCD872" p-id="27553"></path><path d="M443.463224 169.316118h45.634319v45.634319h-45.634319z" fill="#FCD872" p-id="27554"></path><path d="M443.463224 123.596501h45.634319v45.719617h-45.634319z" fill="#FCE3A0" p-id="27555"></path><path d="M443.463224 77.962182h45.634319v45.634319h-45.634319z" fill="#592232" p-id="27556"></path><path d="M397.743607 854.598584h45.719617v45.719617h-45.719617z" fill="#330D1A" p-id="27557"></path><path d="M397.743607 808.964265h45.719617v45.634319h-45.719617z" fill="#FCE3A0" p-id="27558"></path><path d="M397.743607 763.244648h45.719617v45.719617h-45.719617zM397.743607 717.610329h45.719617v45.634319h-45.719617zM397.743607 671.890712h45.719617v45.719617h-45.719617zM397.743607 626.171095h45.719617v45.719617h-45.719617zM397.743607 580.536776h45.719617v45.634319h-45.719617zM397.743607 534.81716h45.719617v45.719616h-45.719617zM397.743607 489.097543h45.719617v45.719617h-45.719617zM397.743607 443.463224h45.719617v45.634319h-45.719617zM397.743607 397.743607h45.719617v45.719617h-45.719617z" fill="#FCD872" p-id="27559"></path><path d="M397.743607 352.02399h45.719617v45.719617h-45.719617zM397.743607 306.389671h45.719617v45.634319h-45.719617z" fill="#FAC879" p-id="27560"></path><path d="M397.743607 260.670054h45.719617v45.719617h-45.719617z" fill="#FFFFFF" p-id="27561"></path><path d="M397.743607 214.950437h45.719617v45.719617h-45.719617z" fill="#FCE3A0" p-id="27562"></path><path d="M397.743607 169.316118h45.719617v45.634319h-45.719617z" fill="#FCE3A0" p-id="27563"></path><path d="M397.743607 123.596501h45.719617v45.719617h-45.719617zM352.02399 854.598584h45.719617v45.719617h-45.719617z" fill="#330D1A" p-id="27564"></path><path d="M352.02399 808.964265h45.719617v45.634319h-45.719617zM352.02399 763.244648h45.719617v45.719617h-45.719617zM352.02399 717.610329h45.719617v45.634319h-45.719617zM352.02399 671.890712h45.719617v45.719617h-45.719617zM352.02399 626.171095h45.719617v45.719617h-45.719617zM352.02399 580.536776h45.719617v45.634319h-45.719617zM352.02399 534.81716h45.719617v45.719616h-45.719617zM352.02399 489.097543h45.719617v45.719617h-45.719617z" fill="#FCD872" p-id="27565"></path><path d="M352.02399 443.463224h45.719617v45.634319h-45.719617z" fill="#FAC879" p-id="27566"></path><path d="M352.02399 397.743607h45.719617v45.719617h-45.719617z" fill="#FFFFFF" p-id="27567"></path><path d="M352.02399 352.02399h45.719617v45.719617h-45.719617zM352.02399 306.389671h45.719617v45.634319h-45.719617z" fill="#FAC879" p-id="27568"></path><path d="M352.02399 260.670054h45.719617v45.719617h-45.719617z" fill="#FCE3A0" p-id="27569"></path><path d="M352.02399 214.950437h45.719617v45.719617h-45.719617z" fill="#592232" p-id="27570"></path><path d="M352.02399 169.316118h45.719617v45.634319h-45.719617z" fill="#592232" p-id="27571"></path><path d="M306.389671 900.318201h45.634319v45.719617h-45.634319z" fill="#330D1A" p-id="27572"></path><path d="M306.389671 854.598584h45.634319v45.719617h-45.634319z" fill="#FCE3A0" p-id="27573"></path><path d="M306.389671 808.964265h45.634319v45.634319h-45.634319zM306.389671 763.244648h45.634319v45.719617h-45.634319zM306.389671 717.610329h45.634319v45.634319h-45.634319zM306.389671 671.890712h45.634319v45.719617h-45.634319zM306.389671 626.171095h45.634319v45.719617h-45.634319zM306.389671 580.536776h45.634319v45.634319h-45.634319zM306.389671 534.81716h45.634319v45.719616h-45.634319zM306.389671 489.097543h45.634319v45.719617h-45.634319z" fill="#FCD872" p-id="27574"></path><path d="M306.389671 443.463224h45.634319v45.634319h-45.634319zM306.389671 397.743607h45.634319v45.719617h-45.634319zM306.389671 352.02399h45.634319v45.719617h-45.634319z" fill="#FFFFFF" p-id="27575"></path><path d="M306.389671 306.389671h45.634319v45.634319h-45.634319z" fill="#FCE3A0" p-id="27576"></path><path d="M306.389671 260.670054h45.634319v45.719617h-45.634319z" fill="#592232" p-id="27577"></path><path d="M260.670054 900.318201h45.719617v45.719617h-45.719617z" fill="#330D1A" p-id="27578"></path><path d="M260.670054 854.598584h45.719617v45.719617h-45.719617z" fill="#FCE3A0" p-id="27579"></path><path d="M260.670054 808.964265h45.719617v45.634319h-45.719617zM260.670054 763.244648h45.719617v45.719617h-45.719617zM260.670054 717.610329h45.719617v45.634319h-45.719617zM260.670054 671.890712h45.719617v45.719617h-45.719617zM260.670054 626.171095h45.719617v45.719617h-45.719617zM260.670054 580.536776h45.719617v45.634319h-45.719617zM260.670054 534.81716h45.719617v45.719616h-45.719617zM260.670054 489.097543h45.719617v45.719617h-45.719617z" fill="#FCD872" p-id="27580"></path><path d="M260.670054 443.463224h45.719617v45.634319h-45.719617z" fill="#FAC879" p-id="27581"></path><path d="M260.670054 397.743607h45.719617v45.719617h-45.719617z" fill="#FFFFFF" p-id="27582"></path><path d="M260.670054 352.02399h45.719617v45.719617h-45.719617z" fill="#FCE3A0" p-id="27583"></path><path d="M260.670054 306.389671h45.719617v45.634319h-45.719617zM214.950437 854.598584h45.719617v45.719617H214.950437zM214.950437 808.964265h45.719617v45.634319H214.950437z" fill="#330D1A" p-id="27584"></path><path d="M214.950437 763.244648h45.719617v45.719617H214.950437zM214.950437 717.610329h45.719617v45.634319H214.950437zM214.950437 671.890712h45.719617v45.719617H214.950437zM214.950437 626.171095h45.719617v45.719617H214.950437zM214.950437 580.536776h45.719617v45.634319H214.950437z" fill="#FCE3A0" p-id="27585"></path><path d="M214.950437 534.81716h45.719617v45.719616H214.950437zM214.950437 489.097543h45.719617v45.719617H214.950437z" fill="#FCD872" p-id="27586"></path><path d="M214.950437 443.463224h45.719617v45.634319H214.950437zM214.950437 397.743607h45.719617v45.719617H214.950437z" fill="#FAC879" p-id="27587"></path><path d="M214.950437 352.02399h45.719617v45.719617H214.950437z" fill="#FCE3A0" p-id="27588"></path><path d="M214.950437 306.389671h45.719617v45.634319H214.950437zM169.316118 763.244648h45.634319v45.719617h-45.634319zM169.316118 717.610329h45.634319v45.634319h-45.634319zM169.316118 671.890712h45.634319v45.719617h-45.634319zM169.316118 626.171095h45.634319v45.719617h-45.634319zM169.316118 580.536776h45.634319v45.634319h-45.634319z" fill="#330D1A" p-id="27589"></path><path d="M169.316118 534.81716h45.634319v45.719616h-45.634319z" fill="#FCE3A0" p-id="27590"></path><path d="M169.316118 489.097543h45.634319v45.719617h-45.634319z" fill="#FCD872" p-id="27591"></path><path d="M169.316118 443.463224h45.634319v45.634319h-45.634319z" fill="#FFFFFF" p-id="27592"></path><path d="M169.316118 397.743607h45.634319v45.719617h-45.634319z" fill="#FAC879" p-id="27593"></path><path d="M169.316118 352.02399h45.634319v45.719617h-45.634319z" fill="#FCE3A0" p-id="27594"></path><path d="M169.316118 306.389671h45.634319v45.634319h-45.634319zM123.596501 534.81716h45.719617v45.719616h-45.719617z" fill="#330D1A" p-id="27595"></path><path d="M123.596501 489.097543h45.719617v45.719617h-45.719617z" fill="#FCE3A0" p-id="27596"></path><path d="M123.596501 443.463224h45.719617v45.634319h-45.719617z" fill="#FAC879" p-id="27597"></path><path d="M123.596501 397.743607h45.719617v45.719617h-45.719617z" fill="#FCE3A0" p-id="27598"></path><path d="M123.596501 352.02399h45.719617v45.719617h-45.719617z" fill="#592232" p-id="27599"></path><path d="M77.876885 489.097543h45.719616v45.719617H77.876885z" fill="#330D1A" p-id="27600"></path><path d="M77.876885 443.463224h45.719616v45.634319H77.876885zM77.876885 397.743607h45.719616v45.719617H77.876885z" fill="#FCE3A0" p-id="27601"></path><path d="M77.876885 352.02399h45.719616v45.719617H77.876885z" fill="#592232" p-id="27602"></path><path d="M32.242566 443.463224h45.634319v45.634319H32.242566zM32.242566 397.743607h45.634319v45.719617H32.242566z" fill="#330D1A" p-id="27603"></path></svg>