<?xml version="1.0" standalone="no"?><!DOCTYPE svg PUBLIC "-//W3C//DTD SVG 1.1//EN" "http://www.w3.org/Graphics/SVG/1.1/DTD/svg11.dtd"><svg t="1764342128831" class="icon" viewBox="0 0 1024 1024" version="1.1" xmlns="http://www.w3.org/2000/svg" p-id="11752" xmlns:xlink="http://www.w3.org/1999/xlink" width="200" height="200"><path d="M486.4 0h51.2v51.2h-51.2zM537.6 0h51.2v51.2h-51.2zM588.8 51.2h51.2v51.2h-51.2zM537.6 102.4h51.2v51.2h-51.2zM588.8 153.6h51.2v51.2h-51.2zM537.6 204.8h51.2v51.2h-51.2zM588.8 256h51.2v51.2h-51.2zM588.8 307.2h51.2v51.2h-51.2z" fill="#3A2802" p-id="11753"></path><path d="M588.8 358.4h51.2v51.2h-51.2z" fill="#FE0000" p-id="11754"></path><path d="M640 409.6h51.2v51.2h-51.2zM640 460.8h51.2v51.2h-51.2zM640 512h51.2v51.2h-51.2zM640 563.2h51.2v51.2h-51.2zM640 614.4h51.2v51.2h-51.2zM640 665.6h51.2v51.2h-51.2z" fill="#FF6800" p-id="11755"></path><path d="M640 716.8h51.2v51.2h-51.2z" fill="#FFB600" p-id="11756"></path><path d="M588.8 768h51.2v51.2h-51.2z" fill="#FFFF3A" p-id="11757"></path><path d="M588.8 921.6h51.2v51.2h-51.2z" fill="#FF6800" p-id="11758"></path><path d="M537.6 870.4h51.2v51.2h-51.2zM486.4 819.2h51.2v51.2h-51.2z" fill="#FFFF3A" p-id="11759"></path><path d="M640 819.2h51.2v51.2h-51.2z" fill="#FFB600" p-id="11760"></path><path d="M742.4 819.2h51.2v51.2h-51.2zM691.2 870.4h51.2v51.2h-51.2z" fill="#FF6800" p-id="11761"></path><path d="M640 256h51.2v51.2h-51.2zM691.2 204.8h51.2v51.2h-51.2zM742.4 153.6h51.2v51.2h-51.2zM793.6 102.4h51.2v51.2h-51.2zM844.8 153.6h51.2v51.2h-51.2zM793.6 204.8h51.2v51.2h-51.2zM844.8 256h51.2v51.2h-51.2zM793.6 307.2h51.2v51.2h-51.2zM844.8 409.6h51.2v51.2h-51.2zM128 460.8h51.2v51.2H128zM179.2 358.4h51.2v51.2H179.2zM230.4 256h51.2v51.2H230.4zM281.6 204.8h51.2v51.2h-51.2zM332.8 153.6h51.2v51.2h-51.2zM384 102.4h51.2v51.2h-51.2zM435.2 51.2h51.2v51.2h-51.2zM640 972.8v51.2h-51.2v-51.2zM844.8 614.4h51.2v51.2h-51.2zM128 665.6h51.2v51.2H128zM435.2 972.8v51.2h-51.2v-51.2zM844.8 512h51.2v51.2h-51.2zM128 563.2h51.2v51.2H128zM537.6 972.8v51.2h-51.2v-51.2zM844.8 716.8h51.2v51.2h-51.2zM128 768h51.2v51.2H128zM793.6 819.2h51.2v51.2h-51.2zM742.4 870.4h51.2v51.2h-51.2zM691.2 921.6h51.2v51.2h-51.2zM640 921.6h51.2v51.2h-51.2zM793.6 358.4h51.2v51.2h-51.2zM844.8 460.8h51.2v51.2h-51.2zM128 512h51.2v51.2H128zM179.2 409.6h51.2v51.2H179.2zM230.4 307.2h51.2v51.2H230.4zM588.8 972.8v51.2h-51.2v-51.2zM844.8 665.6h51.2v51.2h-51.2zM128 716.8h51.2v51.2H128zM384 972.8v51.2h-51.2v-51.2zM332.8 921.6v51.2h-51.2v-51.2zM281.6 870.4v51.2H230.4v-51.2zM230.4 819.2v51.2H179.2v-51.2zM793.6 768h51.2v51.2h-51.2zM844.8 563.2h51.2v51.2h-51.2zM128 614.4h51.2v51.2H128zM486.4 972.8v51.2h-51.2v-51.2z" fill="#3A2802" p-id="11762"></path><path d="M486.4 51.2h51.2v51.2h-51.2zM435.2 102.4h51.2v51.2h-51.2zM384 153.6h51.2v51.2h-51.2zM486.4 153.6h51.2v51.2h-51.2zM332.8 204.8h51.2v51.2h-51.2zM281.6 256h51.2v51.2h-51.2zM281.6 307.2h51.2v51.2h-51.2zM281.6 358.4h51.2v51.2h-51.2zM230.4 358.4h51.2v51.2H230.4zM230.4 409.6h51.2v51.2H230.4zM230.4 460.8h51.2v51.2H230.4zM179.2 460.8h51.2v51.2H179.2z" fill="#FE0000" p-id="11763"></path><path d="M230.4 512h51.2v51.2H230.4z" fill="#FF6800" p-id="11764"></path><path d="M179.2 512h51.2v51.2H179.2z" fill="#FE0000" p-id="11765"></path><path d="M230.4 563.2h51.2v51.2H230.4z" fill="#FF6800" p-id="11766"></path><path d="M179.2 563.2h51.2v51.2H179.2z" fill="#FE0000" p-id="11767"></path><path d="M230.4 614.4h51.2v51.2H230.4z" fill="#FF6800" p-id="11768"></path><path d="M179.2 614.4h51.2v51.2H179.2z" fill="#FE0000" p-id="11769"></path><path d="M230.4 665.6h51.2v51.2H230.4z" fill="#FF6800" p-id="11770"></path><path d="M179.2 665.6h51.2v51.2H179.2z" fill="#FE0000" p-id="11771"></path><path d="M230.4 716.8h51.2v51.2H230.4z" fill="#FF6800" p-id="11772"></path><path d="M179.2 716.8h51.2v51.2H179.2zM179.2 768h51.2v51.2H179.2z" fill="#FE0000" p-id="11773"></path><path d="M281.6 409.6h51.2v51.2h-51.2zM281.6 460.8h51.2v51.2h-51.2zM281.6 512h51.2v51.2h-51.2z" fill="#FF6800" p-id="11774"></path><path d="M281.6 563.2h51.2v51.2h-51.2zM281.6 614.4h51.2v51.2h-51.2zM281.6 665.6h51.2v51.2h-51.2zM281.6 716.8h51.2v51.2h-51.2z" fill="#FFB600" p-id="11775"></path><path d="M230.4 768h51.2v51.2H230.4zM332.8 409.6h51.2v51.2h-51.2z" fill="#FF6800" p-id="11776"></path><path d="M332.8 460.8h51.2v51.2h-51.2z" fill="#FFB600" p-id="11777"></path><path d="M332.8 512h51.2v51.2h-51.2z" fill="#FFFF3A" p-id="11778"></path><path d="M332.8 563.2h51.2v51.2h-51.2zM332.8 614.4h51.2v51.2h-51.2zM332.8 665.6h51.2v51.2h-51.2z" fill="#FFB600" p-id="11779"></path><path d="M332.8 716.8h51.2v51.2h-51.2z" fill="#FFFF3A" p-id="11780"></path><path d="M281.6 768h51.2v51.2h-51.2z" fill="#FFB600" p-id="11781"></path><path d="M435.2 204.8h51.2v51.2h-51.2z" fill="#FF6800" p-id="11782"></path><path d="M384 256h51.2v51.2h-51.2zM486.4 256h51.2v51.2h-51.2z" fill="#FE0000" p-id="11783"></path><path d="M384 307.2h51.2v51.2h-51.2zM384 358.4h51.2v51.2h-51.2z" fill="#FF6800" p-id="11784"></path><path d="M435.2 409.6h51.2v51.2h-51.2zM435.2 460.8h51.2v51.2h-51.2zM435.2 512h51.2v51.2h-51.2z" fill="#FFB600" p-id="11785"></path><path d="M435.2 563.2h51.2v51.2h-51.2zM435.2 614.4h51.2v51.2h-51.2zM435.2 665.6h51.2v51.2h-51.2zM435.2 716.8h51.2v51.2h-51.2zM384 768h51.2v51.2h-51.2z" fill="#FFFF3A" p-id="11786"></path><path d="M384 921.6h51.2v51.2h-51.2z" fill="#FF6800" p-id="11787"></path><path d="M332.8 870.4h51.2v51.2h-51.2zM281.6 819.2h51.2v51.2h-51.2z" fill="#FFB600" p-id="11788"></path><path d="M486.4 307.2h51.2v51.2h-51.2zM486.4 358.4h51.2v51.2h-51.2zM537.6 409.6h51.2v51.2h-51.2zM537.6 460.8h51.2v51.2h-51.2zM537.6 512h51.2v51.2h-51.2z" fill="#FF6800" p-id="11789"></path><path d="M537.6 563.2h51.2v51.2h-51.2z" fill="#FFFF3A" p-id="11790"></path><path d="M537.6 614.4h51.2v51.2h-51.2z" fill="#FFB600" p-id="11791"></path><path d="M537.6 665.6h51.2v51.2h-51.2zM537.6 716.8h51.2v51.2h-51.2zM486.4 768h51.2v51.2h-51.2z" fill="#FFFF3A" p-id="11792"></path><path d="M486.4 921.6h51.2v51.2h-51.2z" fill="#FF6800" p-id="11793"></path><path d="M435.2 870.4h51.2v51.2h-51.2zM384 819.2h51.2v51.2h-51.2zM537.6 819.2h51.2v51.2h-51.2z" fill="#FFFF3A" p-id="11794"></path><path d="M588.8 870.4h51.2v51.2h-51.2z" fill="#FFB600" p-id="11795"></path><path d="M537.6 51.2h51.2v51.2h-51.2zM486.4 102.4h51.2v51.2h-51.2zM435.2 153.6h51.2v51.2h-51.2zM537.6 153.6h51.2v51.2h-51.2zM384 204.8h51.2v51.2h-51.2zM332.8 256h51.2v51.2h-51.2zM332.8 307.2h51.2v51.2h-51.2z" fill="#FE0000" p-id="11796"></path><path d="M332.8 358.4h51.2v51.2h-51.2zM384 409.6h51.2v51.2h-51.2z" fill="#FF6800" p-id="11797"></path><path d="M384 460.8h51.2v51.2h-51.2zM384 512h51.2v51.2h-51.2z" fill="#FFB600" p-id="11798"></path><path d="M384 563.2h51.2v51.2h-51.2zM384 614.4h51.2v51.2h-51.2zM384 665.6h51.2v51.2h-51.2zM384 716.8h51.2v51.2h-51.2zM332.8 768h51.2v51.2h-51.2z" fill="#FFFF3A" p-id="11799"></path><path d="M332.8 921.6h51.2v51.2h-51.2zM281.6 870.4h51.2v51.2h-51.2zM230.4 819.2h51.2v51.2H230.4z" fill="#FF6800" p-id="11800"></path><path d="M486.4 204.8h51.2v51.2h-51.2z" fill="#FE0000" p-id="11801"></path><path d="M435.2 256h51.2v51.2h-51.2z" fill="#FF6800" p-id="11802"></path><path d="M537.6 256h51.2v51.2h-51.2zM793.6 153.6h51.2v51.2h-51.2zM742.4 204.8h51.2v51.2h-51.2zM691.2 256h51.2v51.2h-51.2zM640 307.2h51.2v51.2h-51.2zM640 358.4h51.2v51.2h-51.2zM691.2 409.6h51.2v51.2h-51.2z" fill="#FE0000" p-id="11803"></path><path d="M691.2 460.8h51.2v51.2h-51.2zM691.2 512h51.2v51.2h-51.2zM691.2 563.2h51.2v51.2h-51.2zM691.2 614.4h51.2v51.2h-51.2zM691.2 665.6h51.2v51.2h-51.2zM691.2 716.8h51.2v51.2h-51.2z" fill="#FF6800" p-id="11804"></path><path d="M640 768h51.2v51.2h-51.2z" fill="#FFB600" p-id="11805"></path><path d="M742.4 256h51.2v51.2h-51.2zM691.2 307.2h51.2v51.2h-51.2zM691.2 358.4h51.2v51.2h-51.2zM742.4 409.6h51.2v51.2h-51.2zM742.4 460.8h51.2v51.2h-51.2z" fill="#FE0000" p-id="11806"></path><path d="M742.4 512h51.2v51.2h-51.2zM742.4 563.2h51.2v51.2h-51.2zM742.4 614.4h51.2v51.2h-51.2zM742.4 665.6h51.2v51.2h-51.2zM742.4 716.8h51.2v51.2h-51.2zM691.2 768h51.2v51.2h-51.2z" fill="#FF6800" p-id="11807"></path><path d="M742.4 307.2h51.2v51.2h-51.2zM742.4 358.4h51.2v51.2h-51.2zM793.6 409.6h51.2v51.2h-51.2zM793.6 460.8h51.2v51.2h-51.2zM793.6 512h51.2v51.2h-51.2zM793.6 563.2h51.2v51.2h-51.2zM793.6 614.4h51.2v51.2h-51.2zM793.6 665.6h51.2v51.2h-51.2zM793.6 716.8h51.2v51.2h-51.2z" fill="#FE0000" p-id="11808"></path><path d="M742.4 768h51.2v51.2h-51.2z" fill="#FF6800" p-id="11809"></path><path d="M793.6 256h51.2v51.2h-51.2z" fill="#FE0000" p-id="11810"></path><path d="M435.2 307.2h51.2v51.2h-51.2z" fill="#FF6800" p-id="11811"></path><path d="M435.2 358.4h51.2v51.2h-51.2z" fill="#FFB600" p-id="11812"></path><path d="M486.4 409.6h51.2v51.2h-51.2zM486.4 460.8h51.2v51.2h-51.2z" fill="#FF6800" p-id="11813"></path><path d="M486.4 512h51.2v51.2h-51.2zM486.4 563.2h51.2v51.2h-51.2z" fill="#FFB600" p-id="11814"></path><path d="M486.4 614.4h51.2v51.2h-51.2zM486.4 665.6h51.2v51.2h-51.2zM486.4 716.8h51.2v51.2h-51.2zM435.2 768h51.2v51.2h-51.2z" fill="#FFFF3A" p-id="11815"></path><path d="M435.2 921.6h51.2v51.2h-51.2z" fill="#FF6800" p-id="11816"></path><path d="M384 870.4h51.2v51.2h-51.2zM332.8 819.2h51.2v51.2h-51.2z" fill="#FFFF3A" p-id="11817"></path><path d="M537.6 307.2h51.2v51.2h-51.2zM537.6 358.4h51.2v51.2h-51.2z" fill="#FE0000" p-id="11818"></path><path d="M588.8 409.6h51.2v51.2h-51.2z" fill="#FF6800" p-id="11819"></path><path d="M588.8 460.8h51.2v51.2h-51.2zM588.8 512h51.2v51.2h-51.2zM588.8 563.2h51.2v51.2h-51.2z" fill="#FFB600" p-id="11820"></path><path d="M588.8 614.4h51.2v51.2h-51.2z" fill="#FF6800" p-id="11821"></path><path d="M588.8 665.6h51.2v51.2h-51.2zM588.8 716.8h51.2v51.2h-51.2z" fill="#FFB600" p-id="11822"></path><path d="M537.6 768h51.2v51.2h-51.2z" fill="#FFFF3A" p-id="11823"></path><path d="M537.6 921.6h51.2v51.2h-51.2z" fill="#FF6800" p-id="11824"></path><path d="M486.4 870.4h51.2v51.2h-51.2zM435.2 819.2h51.2v51.2h-51.2zM588.8 819.2h51.2v51.2h-51.2z" fill="#FFFF3A" p-id="11825"></path><path d="M691.2 819.2h51.2v51.2h-51.2zM640 870.4h51.2v51.2h-51.2z" fill="#FF6800" p-id="11826"></path></svg>