<?xml version="1.0" standalone="no"?><!DOCTYPE svg PUBLIC "-//W3C//DTD SVG 1.1//EN" "http://www.w3.org/Graphics/SVG/1.1/DTD/svg11.dtd"><svg t="1763957416347" class="icon" viewBox="0 0 1091 1024" version="1.1" xmlns="http://www.w3.org/2000/svg" p-id="15694" xmlns:xlink="http://www.w3.org/1999/xlink" width="213.0859375" height="200"><path d="M409.538 0.728h68.166v68.166h-68.166zM273.2 68.892h68.166v68.166h-68.166zM136.881 205.227h68.166v68.166H136.88z" fill="#231815" p-id="15695"></path><path d="M205.04 205.227h68.165v68.166h-68.166z" fill="#E83A3A" p-id="15696"></path><path d="M0.54 409.726h68.166v68.166H0.54z" fill="#231815" p-id="15697"></path><path d="M68.71 409.726h68.166v68.166H68.71z m68.17 0h68.167v68.166H136.88z" fill="#FFFFFF" p-id="15698"></path><path d="M205.04 409.726h68.165v68.166h-68.166z" fill="#FFFFFF" p-id="15699"></path><path d="M0.54 546.058h68.166v68.166H0.54z" fill="#231815" p-id="15700"></path><path d="M68.71 546.058h68.166v68.166H68.71z" fill="#FFFFFF" p-id="15701"></path><path d="M136.88 546.058h68.167v68.166H136.88z" fill="#E83A3A" p-id="15702"></path><path d="M205.04 546.058h68.165v68.166h-68.166z" fill="#E83A3A" p-id="15703"></path><path d="M1023.036 546.058h68.166v68.166h-68.166z" fill="#231815" p-id="15704"></path><path d="M954.866 546.058h68.166v68.166h-68.166z" fill="#E83A3A" p-id="15705"></path><path d="M886.697 546.058h68.166v68.166h-68.166z" fill="#FFFFFF" p-id="15706"></path><path d="M818.537 546.058h68.166v68.166h-68.166z" fill="#FFFFFF" p-id="15707"></path><path d="M954.866 409.726h68.166v68.166h-68.166z" fill="#231815" p-id="15708"></path><path d="M886.697 409.726h68.166v68.166h-68.166z" fill="#FFFFFF" p-id="15709"></path><path d="M818.537 409.726h68.166v68.166h-68.166z" fill="#FFFFFF" p-id="15710"></path><path d="M886.697 273.394h68.166v68.166h-68.166z" fill="#231815" p-id="15711"></path><path d="M818.537 273.394h68.166v68.166h-68.166zM273.199 137.06h68.166v68.166h-68.166z m0 68.167h68.166v68.166h-68.166z m0 68.167h68.166v68.166h-68.166z" fill="#E83A3A" p-id="15712"></path><path d="M273.199 341.559h68.166v68.166h-68.166z m0 68.167h68.166v68.166h-68.166z" fill="#E83A3A" p-id="15713"></path><path d="M273.199 477.89h68.166v68.167h-68.166z m0 68.168h68.166v68.166h-68.166z" fill="#E83A3A" p-id="15714"></path><path d="M273.199 614.226h68.166v68.165h-68.166z m0 68.167h68.166v68.166h-68.166z" fill="#231815" p-id="15715"></path><path d="M273.199 750.557h68.166v68.166h-68.166z" fill="#FFFFFF" p-id="15716"></path><path d="M273.199 818.725h68.166v68.166h-68.166z" fill="#FFDFD2" p-id="15717"></path><path d="M273.199 886.89h68.166v68.165h-68.166zM136.881 273.393h68.166v68.166H136.88z" fill="#231815" p-id="15718"></path><path d="M205.04 273.394h68.165v68.166h-68.166z" fill="#E83A3A" p-id="15719"></path><path d="M0.54 477.89h68.166v68.167H0.54z" fill="#231815" p-id="15720"></path><path d="M68.71 477.89h68.166v68.167H68.71z m68.17 0h68.167v68.167H136.88z" fill="#FFFFFF" p-id="15721"></path><path d="M205.04 477.89h68.165v68.167h-68.166z" fill="#E83A3A" p-id="15722"></path><path d="M1023.036 477.89h68.166v68.167h-68.166z" fill="#231815" p-id="15723"></path><path d="M954.866 477.89h68.166v68.167h-68.166z" fill="#E83A3A" p-id="15724"></path><path d="M886.697 477.89h68.166v68.167h-68.166z" fill="#FFFFFF" p-id="15725"></path><path d="M818.537 477.89h68.166v68.167h-68.166z" fill="#FFFFFF" p-id="15726"></path><path d="M954.866 341.559h68.166v68.166h-68.166z" fill="#231815" p-id="15727"></path><path d="M886.697 341.559h68.166v68.166h-68.166z" fill="#E83A3A" p-id="15728"></path><path d="M818.537 341.559h68.166v68.166h-68.166z" fill="#FFFFFF" p-id="15729"></path><path d="M886.697 205.227h68.166v68.166h-68.166z" fill="#231815" p-id="15730"></path><path d="M818.537 205.227h68.166v68.166h-68.166z" fill="#E83A3A" p-id="15731"></path><path d="M0.54 614.226h68.166v68.165H0.54z" fill="#231815" p-id="15732"></path><path d="M68.71 614.226h68.166v68.165H68.71z m68.17 0h68.167v68.165H136.88z" fill="#E83A3A" p-id="15733"></path><path d="M205.04 614.226h68.165v68.165h-68.166z" fill="#E83A3A" p-id="15734"></path><path d="M1023.036 614.226h68.166v68.165h-68.166z" fill="#231815" p-id="15735"></path><path d="M954.866 614.226h68.166v68.165h-68.166z m-68.17 0h68.167v68.165h-68.166z" fill="#E83A3A" p-id="15736"></path><path d="M818.537 614.226h68.166v68.165h-68.166z" fill="#FFFFFF" p-id="15737"></path><path d="M205.04 818.725h68.165v68.166h-68.166z m613.497 0h68.166v68.166h-68.166zM0.54 682.393h68.166v68.166H0.54z" fill="#231815" p-id="15738"></path><path d="M68.71 682.393h68.166v68.166H68.71z" fill="#E83A3A" p-id="15739"></path><path d="M136.88 682.393h68.167v68.166H136.88z" fill="#231815" p-id="15740"></path><path d="M205.04 682.393h68.165v68.166h-68.166z m817.996 0h68.166v68.166h-68.166z" fill="#231815" p-id="15741"></path><path d="M954.866 682.393h68.166v68.166h-68.166z" fill="#E83A3A" p-id="15742"></path><path d="M886.697 682.393h68.166v68.166h-68.166z" fill="#231815" p-id="15743"></path><path d="M818.537 682.393h68.166v68.166h-68.166zM205.039 886.889h68.166v68.166h-68.166z m613.498 0h68.166v68.166h-68.166z m-545.338 68.17h68.166v68.167h-68.166z m204.51 0h68.166v68.167h-68.166zM68.71 750.558h68.166v68.166H68.71z" fill="#231815" p-id="15744"></path><path d="M886.697 750.557h68.166v68.166h-68.166z" fill="#231815" p-id="15745"></path><path d="M818.537 750.557h68.166v68.166h-68.166zM341.367 955.06h68.167v68.166h-68.166z m204.5 0h68.166v68.166h-68.166z m136.341 0h68.166v68.166h-68.166zM136.881 750.557h68.166v68.166H136.88z" fill="#231815" p-id="15746"></path><path d="M205.04 750.557h68.165v68.166h-68.166z" fill="#FFFFFF" p-id="15747"></path><path d="M954.866 750.557h68.166v68.166h-68.166zM409.538 955.06h68.166v68.166h-68.166z m204.5 0h68.166v68.166h-68.166z m136.34 0h68.166v68.166h-68.166zM68.71 341.559h68.166v68.166H68.71z" fill="#231815" p-id="15748"></path><path d="M136.88 341.559h68.167v68.166H136.88z" fill="#FFFFFF" p-id="15749"></path><path d="M205.04 341.559h68.165v68.166h-68.166z" fill="#FFFFFF" p-id="15750"></path><path d="M205.04 137.06h68.165v68.166h-68.166z" fill="#231815" p-id="15751"></path><path d="M545.867 68.892h68.166v68.166h-68.166z m0 68.168h68.166v68.166h-68.166z" fill="#E83A3A" p-id="15752"></path><path d="M545.867 205.227h68.166v68.166h-68.166z m0 68.167h68.166v68.166h-68.166z" fill="#FFFFFF" p-id="15753"></path><path d="M545.867 341.559h68.166v68.166h-68.166z m0 68.167h68.166v68.166h-68.166z" fill="#E83A3A" p-id="15754"></path><path d="M545.867 477.89h68.166v68.167h-68.166z m0 68.168h68.166v68.166h-68.166z" fill="#E83A3A" p-id="15755"></path><path d="M545.867 614.226h68.166v68.165h-68.166z" fill="#231815" p-id="15756"></path><path d="M545.867 682.393h68.166v68.166h-68.166z" fill="#FFDFD2" p-id="15757"></path><path d="M545.867 750.557h68.166v68.166h-68.166z m0 68.168h68.166v68.166h-68.166z" fill="#FFFFFF" p-id="15758"></path><path d="M545.867 886.89h68.166v68.165h-68.166z" fill="#FFDFD2" p-id="15759"></path><path d="M477.709 0.728h68.166v68.166h-68.166zM341.368 68.892h68.166v68.166h-68.166z" fill="#231815" p-id="15760"></path><path d="M341.368 137.06h68.166v68.166h-68.166z" fill="#E83A3A" p-id="15761"></path><path d="M341.368 205.227h68.166v68.166h-68.166z m0 68.167h68.166v68.166h-68.166z" fill="#FFFFFF" p-id="15762"></path><path d="M341.368 341.559h68.166v68.166h-68.166z m0 68.167h68.166v68.166h-68.166z" fill="#E83A3A" p-id="15763"></path><path d="M341.368 477.89h68.166v68.167h-68.166z m0 68.168h68.166v68.166h-68.166z" fill="#E83A3A" p-id="15764"></path><path d="M341.368 614.226h68.166v68.165h-68.166z" fill="#231815" p-id="15765"></path><path d="M341.368 682.393h68.166v68.166h-68.166z" fill="#FFDFD2" p-id="15766"></path><path d="M341.368 750.557h68.166v68.166h-68.166z m0 68.168h68.166v68.166h-68.166z" fill="#FFFFFF" p-id="15767"></path><path d="M341.368 886.89h68.166v68.165h-68.166z" fill="#FFDFD2" p-id="15768"></path><path d="M614.038 68.892h68.166v68.166h-68.166z m0 68.168h68.166v68.166h-68.166z m0 68.167h68.166v68.166h-68.166z m0 68.167h68.166v68.166h-68.166z" fill="#E83A3A" p-id="15769"></path><path d="M614.038 341.559h68.166v68.166h-68.166z" fill="#E83A3A" p-id="15770"></path><path d="M614.038 409.726h68.166v68.166h-68.166z" fill="#FFFFFF" p-id="15771"></path><path d="M614.038 477.89h68.166v68.167h-68.166z m0 68.168h68.166v68.166h-68.166z" fill="#FFFFFF" p-id="15772"></path><path d="M614.038 614.226h68.166v68.165h-68.166z m0 68.167h68.166v68.166h-68.166z" fill="#231815" p-id="15773"></path><path d="M614.038 750.557h68.166v68.166h-68.166z" fill="#231815" p-id="15774"></path><path d="M614.038 818.725h68.166v68.166h-68.166z" fill="#FFFFFF" p-id="15775"></path><path d="M614.038 886.89h68.166v68.165h-68.166z" fill="#FFDFD2" p-id="15776"></path><path d="M545.867 0.728h68.166v68.166h-68.166z" fill="#231815" p-id="15777"></path><path d="M409.538 68.892h68.166v68.166h-68.166z" fill="#E83A3A" p-id="15778"></path><path d="M409.538 137.06h68.166v68.166h-68.166z m0 68.167h68.166v68.166h-68.166z m0 68.167h68.166v68.166h-68.166z" fill="#FFFFFF" p-id="15779"></path><path d="M409.538 341.559h68.166v68.166h-68.166z" fill="#FFFFFF" p-id="15780"></path><path d="M409.538 409.726h68.166v68.166h-68.166z" fill="#E83A3A" p-id="15781"></path><path d="M409.538 477.89h68.166v68.167h-68.166z m0 68.168h68.166v68.166h-68.166z" fill="#E83A3A" p-id="15782"></path><path d="M409.538 614.226h68.166v68.165h-68.166z m0 68.167h68.166v68.166h-68.166z" fill="#231815" p-id="15783"></path><path d="M409.538 750.557h68.166v68.166h-68.166z" fill="#231815" p-id="15784"></path><path d="M409.538 818.725h68.166v68.166h-68.166z" fill="#FFFFFF" p-id="15785"></path><path d="M409.538 886.89h68.166v68.165h-68.166z" fill="#FFDFD2" p-id="15786"></path><path d="M682.208 68.892h68.166v68.166h-68.166z" fill="#231815" p-id="15787"></path><path d="M682.208 137.06h68.166v68.166h-68.166z" fill="#FFFFFF" p-id="15788"></path><path d="M682.208 205.227h68.166v68.166h-68.166z m0 68.167h68.166v68.166h-68.166z" fill="#E83A3A" p-id="15789"></path><path d="M682.208 341.559h68.166v68.166h-68.166z m0 68.167h68.166v68.166h-68.166z" fill="#FFFFFF" p-id="15790"></path><path d="M682.208 477.89h68.166v68.167h-68.166z m0 68.168h68.166v68.166h-68.166z" fill="#FFFFFF" p-id="15791"></path><path d="M682.208 614.226h68.166v68.165h-68.166z" fill="#231815" p-id="15792"></path><path d="M682.208 682.393h68.166v68.166h-68.166z" fill="#FFDFD2" p-id="15793"></path><path d="M682.208 750.557h68.166v68.166h-68.166z m0 68.168h68.166v68.166h-68.166z" fill="#FFFFFF" p-id="15794"></path><path d="M682.208 886.89h68.166v68.165h-68.166z" fill="#FFDFD2" p-id="15795"></path><path d="M614.038 0.728h68.166v68.166h-68.166z" fill="#231815" p-id="15796"></path><path d="M477.709 68.892h68.166v68.166h-68.166z" fill="#E83A3A" p-id="15797"></path><path d="M477.709 137.06h68.166v68.166h-68.166z m0 68.167h68.166v68.166h-68.166z m0 68.167h68.166v68.166h-68.166z" fill="#FFFFFF" p-id="15798"></path><path d="M477.709 341.559h68.166v68.166h-68.166z" fill="#FFFFFF" p-id="15799"></path><path d="M477.709 409.726h68.166v68.166h-68.166z" fill="#E83A3A" p-id="15800"></path><path d="M477.709 477.89h68.166v68.167h-68.166z m0 68.168h68.166v68.166h-68.166z" fill="#E83A3A" p-id="15801"></path><path d="M477.709 614.226h68.166v68.165h-68.166z" fill="#231815" p-id="15802"></path><path d="M477.709 682.393h68.166v68.166h-68.166z" fill="#FFDFD2" p-id="15803"></path><path d="M477.709 750.557h68.166v68.166h-68.166z m0 68.168h68.166v68.166h-68.166z" fill="#FFFFFF" p-id="15804"></path><path d="M477.709 886.89h68.166v68.165h-68.166z" fill="#FFDFD2" p-id="15805"></path><path d="M750.378 68.892h68.166v68.166h-68.166z" fill="#231815" p-id="15806"></path><path d="M750.378 137.06h68.166v68.166h-68.166z" fill="#FFFFFF" p-id="15807"></path><path d="M750.378 205.227h68.166v68.166h-68.166z m0 68.167h68.166v68.166h-68.166z" fill="#E83A3A" p-id="15808"></path><path d="M750.378 341.559h68.166v68.166h-68.166z m0 68.167h68.166v68.166h-68.166z" fill="#FFFFFF" p-id="15809"></path><path d="M750.378 477.89h68.166v68.167h-68.166z m0 68.168h68.166v68.166h-68.166z" fill="#FFFFFF" p-id="15810"></path><path d="M750.378 614.226h68.166v68.165h-68.166z m0 68.167h68.166v68.166h-68.166z" fill="#231815" p-id="15811"></path><path d="M750.378 750.557h68.166v68.166h-68.166z" fill="#FFFFFF" p-id="15812"></path><path d="M750.378 818.725h68.166v68.166h-68.166z" fill="#FFDFD2" p-id="15813"></path><path d="M750.378 886.89h68.166v68.165h-68.166z m68.159-749.83h68.166v68.166h-68.166z" fill="#231815" p-id="15814"></path></svg>