<?xml version="1.0" standalone="no"?><!DOCTYPE svg PUBLIC "-//W3C//DTD SVG 1.1//EN" "http://www.w3.org/Graphics/SVG/1.1/DTD/svg11.dtd"><svg t="1764342571527" class="icon" viewBox="0 0 1024 1024" version="1.1" xmlns="http://www.w3.org/2000/svg" p-id="31612" xmlns:xlink="http://www.w3.org/1999/xlink" width="200" height="200"><path d="M946.037818 831.824073h45.634319v45.634319h-45.634319zM946.037818 786.104456h45.634319v45.719617h-45.634319z" fill="#340B1D" p-id="31613"></path><path d="M946.037818 603.311287h45.634319v45.719617h-45.634319zM946.037818 557.676968h45.634319v45.634319h-45.634319z" fill="#360C18" p-id="31614"></path><path d="M946.037818 511.957351h45.634319v45.719617h-45.634319zM946.037818 466.323032h45.634319v45.634319h-45.634319z" fill="#360C18" p-id="31615"></path><path d="M900.318201 877.458392h45.719617v45.719617h-45.719617z" fill="#571F32" p-id="31616"></path><path d="M900.318201 831.824073h45.719617v45.634319h-45.719617zM900.318201 786.104456h45.719617v45.719617h-45.719617z" fill="#EA4A6E" p-id="31617"></path><path d="M900.318201 740.38484h45.719617v45.719616h-45.719617zM900.318201 649.030904h45.719617v45.719617h-45.719617z" fill="#360C18" p-id="31618"></path><path d="M900.318201 603.311287h45.719617v45.719617h-45.719617z" fill="#ED799C" p-id="31619"></path><path d="M900.318201 557.676968h45.719617v45.634319h-45.719617z" fill="#FA9BB7" p-id="31620"></path><path d="M900.318201 511.957351h45.719617v45.719617h-45.719617z" fill="#FDA8C7" p-id="31621"></path><path d="M900.318201 466.323032h45.719617v45.634319h-45.719617z" fill="#EA7D9A" p-id="31622"></path><path d="M900.318201 420.603415h45.719617v45.719617h-45.719617z" fill="#360C18" p-id="31623"></path><path d="M854.598584 877.458392h45.719617v45.719617h-45.719617z" fill="#571F32" p-id="31624"></path><path d="M854.598584 831.824073h45.719617v45.634319h-45.719617z" fill="#EA4A6E" p-id="31625"></path><path d="M854.598584 786.104456h45.719617v45.719617h-45.719617z" fill="#FFDBE7" p-id="31626"></path><path d="M854.598584 740.38484h45.719617v45.719616h-45.719617z" fill="#FF7799" p-id="31627"></path><path d="M854.598584 694.750521h45.719617v45.634319h-45.719617zM854.598584 649.030904h45.719617v45.719617h-45.719617z" fill="#360C18" p-id="31628"></path><path d="M854.598584 603.311287h45.719617v45.719617h-45.719617z" fill="#ED799C" p-id="31629"></path><path d="M854.598584 557.676968h45.719617v45.634319h-45.719617z" fill="#FDA8C7" p-id="31630"></path><path d="M854.598584 511.957351h45.719617v45.719617h-45.719617zM854.598584 466.323032h45.719617v45.634319h-45.719617z" fill="#FDA8C7" p-id="31631"></path><path d="M854.598584 420.603415h45.719617v45.719617h-45.719617zM854.598584 374.883798h45.719617v45.719617h-45.719617zM854.598584 329.249479h45.719617v45.634319h-45.719617z" fill="#360C18" p-id="31632"></path><path d="M808.964265 877.458392h45.634319v45.719617h-45.634319z" fill="#571F32" p-id="31633"></path><path d="M808.964265 831.824073h45.634319v45.634319h-45.634319z" fill="#EA4A6E" p-id="31634"></path><path d="M808.964265 786.104456h45.634319v45.719617h-45.634319z" fill="#FF6084" p-id="31635"></path><path d="M808.964265 740.38484h45.634319v45.719616h-45.634319z" fill="#FF7799" p-id="31636"></path><path d="M808.964265 694.750521h45.634319v45.634319h-45.634319z" fill="#EA4A6E" p-id="31637"></path><path d="M808.964265 649.030904h45.634319v45.719617h-45.634319z" fill="#ED799C" p-id="31638"></path><path d="M808.964265 603.311287h45.634319v45.719617h-45.634319z" fill="#FA9BB7" p-id="31639"></path><path d="M808.964265 557.676968h45.634319v45.634319h-45.634319z" fill="#FDA8C7" p-id="31640"></path><path d="M808.964265 511.957351h45.634319v45.719617h-45.634319zM808.964265 466.323032h45.634319v45.634319h-45.634319zM808.964265 420.603415h45.634319v45.719617h-45.634319zM808.964265 374.883798h45.634319v45.719617h-45.634319z" fill="#FDA8C7" p-id="31641"></path><path d="M808.964265 329.249479h45.634319v45.634319h-45.634319z" fill="#EA7D9A" p-id="31642"></path><path d="M808.964265 283.529863h45.634319v45.719616h-45.634319zM808.964265 237.810246h45.634319v45.719617h-45.634319z" fill="#360C18" p-id="31643"></path><path d="M763.244648 877.458392h45.719617v45.719617h-45.719617z" fill="#571F32" p-id="31644"></path><path d="M763.244648 831.824073h45.719617v45.634319h-45.719617z" fill="#EA4A6E" p-id="31645"></path><path d="M763.244648 786.104456h45.719617v45.719617h-45.719617zM763.244648 740.38484h45.719617v45.719616h-45.719617z" fill="#FF6084" p-id="31646"></path><path d="M763.244648 694.750521h45.719617v45.634319h-45.719617z" fill="#ED799C" p-id="31647"></path><path d="M763.244648 649.030904h45.719617v45.719617h-45.719617zM763.244648 603.311287h45.719617v45.719617h-45.719617z" fill="#FA9BB7" p-id="31648"></path><path d="M763.244648 557.676968h45.719617v45.634319h-45.719617z" fill="#FDA8C7" p-id="31649"></path><path d="M763.244648 511.957351h45.719617v45.719617h-45.719617z" fill="#FDA8C7" p-id="31650"></path><path d="M763.244648 466.323032h45.719617v45.634319h-45.719617z" fill="#FA4F77" p-id="31651"></path><path d="M763.244648 420.603415h45.719617v45.719617h-45.719617zM763.244648 374.883798h45.719617v45.719617h-45.719617zM763.244648 329.249479h45.719617v45.634319h-45.719617zM763.244648 283.529863h45.719617v45.719616h-45.719617zM763.244648 237.810246h45.719617v45.719617h-45.719617z" fill="#FDA8C7" p-id="31652"></path><path d="M763.244648 192.175927h45.719617v45.634319h-45.719617z" fill="#58212F" p-id="31653"></path><path d="M717.525031 877.458392h45.719617v45.719617h-45.719617z" fill="#571F32" p-id="31654"></path><path d="M717.525031 831.824073h45.719617v45.634319h-45.719617zM717.525031 786.104456h45.719617v45.719617h-45.719617zM717.525031 740.38484h45.719617v45.719616h-45.719617z" fill="#EA4A6E" p-id="31655"></path><path d="M717.525031 694.750521h45.719617v45.634319h-45.719617zM717.525031 649.030904h45.719617v45.719617h-45.719617z" fill="#FA9BB7" p-id="31656"></path><path d="M717.525031 603.311287h45.719617v45.719617h-45.719617zM717.525031 557.676968h45.719617v45.634319h-45.719617z" fill="#FDA8C7" p-id="31657"></path><path d="M717.525031 511.957351h45.719617v45.719617h-45.719617z" fill="#FDA8C7" p-id="31658"></path><path d="M717.525031 466.323032h45.719617v45.634319h-45.719617z" fill="#FA4F77" p-id="31659"></path><path d="M717.525031 420.603415h45.719617v45.719617h-45.719617zM717.525031 374.883798h45.719617v45.719617h-45.719617zM717.525031 329.249479h45.719617v45.634319h-45.719617zM717.525031 283.529863h45.719617v45.719616h-45.719617zM717.525031 237.810246h45.719617v45.719617h-45.719617z" fill="#FDA8C7" p-id="31660"></path><path d="M717.525031 192.175927h45.719617v45.634319h-45.719617zM717.525031 146.45631h45.719617v45.719617h-45.719617z" fill="#58212F" p-id="31661"></path><path d="M671.890712 877.458392h45.634319v45.719617h-45.634319z" fill="#571F32" p-id="31662"></path><path d="M671.890712 831.824073h45.634319v45.634319h-45.634319zM671.890712 786.104456h45.634319v45.719617h-45.634319z" fill="#EA4A6E" p-id="31663"></path><path d="M671.890712 740.38484h45.634319v45.719616h-45.634319zM671.890712 694.750521h45.634319v45.634319h-45.634319z" fill="#FA9BB7" p-id="31664"></path><path d="M671.890712 649.030904h45.634319v45.719617h-45.634319zM671.890712 603.311287h45.634319v45.719617h-45.634319zM671.890712 557.676968h45.634319v45.634319h-45.634319z" fill="#FDA8C7" p-id="31665"></path><path d="M671.890712 511.957351h45.634319v45.719617h-45.634319z" fill="#FDA8C7" p-id="31666"></path><path d="M671.890712 466.323032h45.634319v45.634319h-45.634319zM671.890712 420.603415h45.634319v45.719617h-45.634319zM671.890712 374.883798h45.634319v45.719617h-45.634319z" fill="#360C18" p-id="31667"></path><path d="M671.890712 329.249479h45.634319v45.634319h-45.634319z" fill="#863C53" p-id="31668"></path><path d="M671.890712 283.529863h45.634319v45.719616h-45.634319z" fill="#EA7D9A" p-id="31669"></path><path d="M671.890712 237.810246h45.634319v45.719617h-45.634319z" fill="#FDA8C7" p-id="31670"></path><path d="M671.890712 192.175927h45.634319v45.634319h-45.634319z" fill="#FDA8C7" p-id="31671"></path><path d="M671.890712 146.45631h45.634319v45.719617h-45.634319z" fill="#58212F" p-id="31672"></path><path d="M626.171095 877.458392h45.719617v45.719617h-45.719617z" fill="#360C18" p-id="31673"></path><path d="M626.171095 831.824073h45.719617v45.634319h-45.719617z" fill="#EA4A6E" p-id="31674"></path><path d="M626.171095 786.104456h45.719617v45.719617h-45.719617z" fill="#ED799C" p-id="31675"></path><path d="M626.171095 740.38484h45.719617v45.719616h-45.719617z" fill="#FA9BB7" p-id="31676"></path><path d="M626.171095 694.750521h45.719617v45.634319h-45.719617zM626.171095 649.030904h45.719617v45.719617h-45.719617zM626.171095 603.311287h45.719617v45.719617h-45.719617z" fill="#FDA8C7" p-id="31677"></path><path d="M626.171095 557.676968h45.719617v45.634319h-45.719617z" fill="#EA7D9A" p-id="31678"></path><path d="M626.171095 511.957351h45.719617v45.719617h-45.719617z" fill="#FDA8C7" p-id="31679"></path><path d="M626.171095 466.323032h45.719617v45.634319h-45.719617z" fill="#B26483" p-id="31680"></path><path d="M626.171095 420.603415h45.719617v45.719617h-45.719617z" fill="#833D55" p-id="31681"></path><path d="M626.171095 374.883798h45.719617v45.719617h-45.719617z" fill="#360C18" p-id="31682"></path><path d="M626.171095 329.249479h45.719617v45.634319h-45.719617z" fill="#FEFFFD" p-id="31683"></path><path d="M626.171095 283.529863h45.719617v45.719616h-45.719617z" fill="#EA7D9A" p-id="31684"></path><path d="M626.171095 237.810246h45.719617v45.719617h-45.719617z" fill="#FDA8C7" p-id="31685"></path><path d="M626.171095 192.175927h45.719617v45.634319h-45.719617z" fill="#FDA8C7" p-id="31686"></path><path d="M626.171095 146.45631h45.719617v45.719617h-45.719617zM626.171095 100.736693h45.719617v45.719617h-45.719617z" fill="#58212F" p-id="31687"></path><path d="M580.536776 877.458392h45.634319v45.719617h-45.634319z" fill="#360C18" p-id="31688"></path><path d="M580.536776 831.824073h45.634319v45.634319h-45.634319z" fill="#EA4A6E" p-id="31689"></path><path d="M580.536776 786.104456h45.634319v45.719617h-45.634319z" fill="#ED799C" p-id="31690"></path><path d="M580.536776 740.38484h45.634319v45.719616h-45.634319z" fill="#FA9BB7" p-id="31691"></path><path d="M580.536776 694.750521h45.634319v45.634319h-45.634319zM580.536776 649.030904h45.634319v45.719617h-45.634319zM580.536776 603.311287h45.634319v45.719617h-45.634319zM580.536776 557.676968h45.634319v45.634319h-45.634319z" fill="#FDA8C7" p-id="31692"></path><path d="M580.536776 511.957351h45.634319v45.719617h-45.634319zM580.536776 466.323032h45.634319v45.634319h-45.634319zM580.536776 420.603415h45.634319v45.719617h-45.634319zM580.536776 374.883798h45.634319v45.719617h-45.634319zM580.536776 329.249479h45.634319v45.634319h-45.634319zM580.536776 283.529863h45.634319v45.719616h-45.634319zM580.536776 237.810246h45.634319v45.719617h-45.634319z" fill="#FDA8C7" p-id="31693"></path><path d="M580.536776 192.175927h45.634319v45.634319h-45.634319zM580.536776 146.45631h45.634319v45.719617h-45.634319z" fill="#FDA8C7" p-id="31694"></path><path d="M580.536776 100.736693h45.634319v45.719617h-45.634319z" fill="#58212F" p-id="31695"></path><path d="M534.81716 831.824073h45.719616v45.634319H534.81716z" fill="#360C18" p-id="31696"></path><path d="M534.81716 786.104456h45.719616v45.719617H534.81716zM534.81716 740.38484h45.719616v45.719616H534.81716z" fill="#FA9BB7" p-id="31697"></path><path d="M534.81716 694.750521h45.719616v45.634319H534.81716zM534.81716 649.030904h45.719616v45.719617H534.81716zM534.81716 603.311287h45.719616v45.719617H534.81716zM534.81716 557.676968h45.719616v45.634319H534.81716z" fill="#FDA8C7" p-id="31698"></path><path d="M534.81716 511.957351h45.719616v45.719617H534.81716z" fill="#FDA8C7" p-id="31699"></path><path d="M534.81716 466.323032h45.719616v45.634319H534.81716zM534.81716 420.603415h45.719616v45.719617H534.81716zM534.81716 374.883798h45.719616v45.719617H534.81716z" fill="#360C18" p-id="31700"></path><path d="M534.81716 329.249479h45.719616v45.634319H534.81716z" fill="#863C53" p-id="31701"></path><path d="M534.81716 283.529863h45.719616v45.719616H534.81716z" fill="#EA7D9A" p-id="31702"></path><path d="M534.81716 237.810246h45.719616v45.719617H534.81716z" fill="#FDA8C7" p-id="31703"></path><path d="M534.81716 192.175927h45.719616v45.634319H534.81716zM534.81716 146.45631h45.719616v45.719617H534.81716z" fill="#FDA8C7" p-id="31704"></path><path d="M534.81716 100.736693h45.719616v45.719617H534.81716z" fill="#58212F" p-id="31705"></path><path d="M489.097543 831.824073h45.719617v45.634319h-45.719617z" fill="#360C18" p-id="31706"></path><path d="M489.097543 786.104456h45.719617v45.719617h-45.719617zM489.097543 740.38484h45.719617v45.719616h-45.719617z" fill="#FA9BB7" p-id="31707"></path><path d="M489.097543 694.750521h45.719617v45.634319h-45.719617zM489.097543 649.030904h45.719617v45.719617h-45.719617zM489.097543 603.311287h45.719617v45.719617h-45.719617zM489.097543 557.676968h45.719617v45.634319h-45.719617z" fill="#FDA8C7" p-id="31708"></path><path d="M489.097543 511.957351h45.719617v45.719617h-45.719617z" fill="#FDA8C7" p-id="31709"></path><path d="M489.097543 466.323032h45.719617v45.634319h-45.719617z" fill="#B26483" p-id="31710"></path><path d="M489.097543 420.603415h45.719617v45.719617h-45.719617z" fill="#833D55" p-id="31711"></path><path d="M489.097543 374.883798h45.719617v45.719617h-45.719617z" fill="#360C18" p-id="31712"></path><path d="M489.097543 329.249479h45.719617v45.634319h-45.719617z" fill="#FEFFFD" p-id="31713"></path><path d="M489.097543 283.529863h45.719617v45.719616h-45.719617z" fill="#EA7D9A" p-id="31714"></path><path d="M489.097543 237.810246h45.719617v45.719617h-45.719617z" fill="#FDA8C7" p-id="31715"></path><path d="M489.097543 192.175927h45.719617v45.634319h-45.719617zM489.097543 146.45631h45.719617v45.719617h-45.719617z" fill="#FDA8C7" p-id="31716"></path><path d="M489.097543 100.736693h45.719617v45.719617h-45.719617z" fill="#58212F" p-id="31717"></path><path d="M443.463224 877.458392h45.634319v45.719617h-45.634319z" fill="#360C18" p-id="31718"></path><path d="M443.463224 831.824073h45.634319v45.634319h-45.634319z" fill="#EA4A6E" p-id="31719"></path><path d="M443.463224 786.104456h45.634319v45.719617h-45.634319zM443.463224 740.38484h45.634319v45.719616h-45.634319z" fill="#FA9BB7" p-id="31720"></path><path d="M443.463224 694.750521h45.634319v45.634319h-45.634319zM443.463224 649.030904h45.634319v45.719617h-45.634319zM443.463224 603.311287h45.634319v45.719617h-45.634319zM443.463224 557.676968h45.634319v45.634319h-45.634319z" fill="#FDA8C7" p-id="31721"></path><path d="M443.463224 511.957351h45.634319v45.719617h-45.634319zM443.463224 466.323032h45.634319v45.634319h-45.634319zM443.463224 420.603415h45.634319v45.719617h-45.634319zM443.463224 374.883798h45.634319v45.719617h-45.634319z" fill="#FDA8C7" p-id="31722"></path><path d="M443.463224 329.249479h45.634319v45.634319h-45.634319z" fill="#EA7D9C" p-id="31723"></path><path d="M443.463224 283.529863h45.634319v45.719616h-45.634319zM443.463224 237.810246h45.634319v45.719617h-45.634319z" fill="#FDA8C7" p-id="31724"></path><path d="M443.463224 192.175927h45.634319v45.634319h-45.634319zM443.463224 146.45631h45.634319v45.719617h-45.634319z" fill="#FDA8C7" p-id="31725"></path><path d="M443.463224 100.736693h45.634319v45.719617h-45.634319z" fill="#58212F" p-id="31726"></path><path d="M397.743607 877.458392h45.719617v45.719617h-45.719617z" fill="#360C18" p-id="31727"></path><path d="M397.743607 831.824073h45.719617v45.634319h-45.719617zM397.743607 786.104456h45.719617v45.719617h-45.719617z" fill="#EA4A6E" p-id="31728"></path><path d="M397.743607 740.38484h45.719617v45.719616h-45.719617z" fill="#FA9BB7" p-id="31729"></path><path d="M397.743607 694.750521h45.719617v45.634319h-45.719617z" fill="#FA9BB9" p-id="31730"></path><path d="M397.743607 649.030904h45.719617v45.719617h-45.719617zM397.743607 603.311287h45.719617v45.719617h-45.719617zM397.743607 557.676968h45.719617v45.634319h-45.719617z" fill="#FDA8C7" p-id="31731"></path><path d="M397.743607 511.957351h45.719617v45.719617h-45.719617z" fill="#FDA8C7" p-id="31732"></path><path d="M397.743607 466.323032h45.719617v45.634319h-45.719617z" fill="#FD4E77" p-id="31733"></path><path d="M397.743607 420.603415h45.719617v45.719617h-45.719617zM397.743607 374.883798h45.719617v45.719617h-45.719617zM397.743607 329.249479h45.719617v45.634319h-45.719617zM397.743607 283.529863h45.719617v45.719616h-45.719617zM397.743607 237.810246h45.719617v45.719617h-45.719617z" fill="#FDA8C7" p-id="31734"></path><path d="M397.743607 192.175927h45.719617v45.634319h-45.719617z" fill="#FDA8C7" p-id="31735"></path><path d="M397.743607 146.45631h45.719617v45.719617h-45.719617zM397.743607 100.736693h45.719617v45.719617h-45.719617zM352.02399 877.458392h45.719617v45.719617h-45.719617z" fill="#360C18" p-id="31736"></path><path d="M352.02399 831.824073h45.719617v45.634319h-45.719617zM352.02399 786.104456h45.719617v45.719617h-45.719617z" fill="#EA4A6E" p-id="31737"></path><path d="M352.02399 740.38484h45.719617v45.719616h-45.719617z" fill="#EB7B9B" p-id="31738"></path><path d="M352.02399 694.750521h45.719617v45.634319h-45.719617z" fill="#FA9BB9" p-id="31739"></path><path d="M352.02399 649.030904h45.719617v45.719617h-45.719617zM352.02399 603.311287h45.719617v45.719617h-45.719617zM352.02399 557.676968h45.719617v45.634319h-45.719617z" fill="#FDA8C7" p-id="31740"></path><path d="M352.02399 511.957351h45.719617v45.719617h-45.719617z" fill="#FDA8C7" p-id="31741"></path><path d="M352.02399 466.323032h45.719617v45.634319h-45.719617z" fill="#FD4E77" p-id="31742"></path><path d="M352.02399 420.603415h45.719617v45.719617h-45.719617zM352.02399 374.883798h45.719617v45.719617h-45.719617zM352.02399 329.249479h45.719617v45.634319h-45.719617zM352.02399 283.529863h45.719617v45.719616h-45.719617zM352.02399 237.810246h45.719617v45.719617h-45.719617z" fill="#FDA8C7" p-id="31743"></path><path d="M352.02399 192.175927h45.719617v45.634319h-45.719617z" fill="#FDA8C7" p-id="31744"></path><path d="M352.02399 146.45631h45.719617v45.719617h-45.719617zM306.389671 877.458392h45.634319v45.719617h-45.634319z" fill="#360C18" p-id="31745"></path><path d="M306.389671 831.824073h45.634319v45.634319h-45.634319zM306.389671 786.104456h45.634319v45.719617h-45.634319zM306.389671 740.38484h45.634319v45.719616h-45.634319z" fill="#EA4A6E" p-id="31746"></path><path d="M306.389671 694.750521h45.634319v45.634319h-45.634319zM306.389671 649.030904h45.634319v45.719617h-45.634319z" fill="#FA9BB9" p-id="31747"></path><path d="M306.389671 603.311287h45.634319v45.719617h-45.634319zM306.389671 557.676968h45.634319v45.634319h-45.634319z" fill="#FDA8C7" p-id="31748"></path><path d="M306.389671 511.957351h45.634319v45.719617h-45.634319z" fill="#FDA8C7" p-id="31749"></path><path d="M306.389671 466.323032h45.634319v45.634319h-45.634319z" fill="#EB7D9E" p-id="31750"></path><path d="M306.389671 420.603415h45.634319v45.719617h-45.634319zM306.389671 374.883798h45.634319v45.719617h-45.634319zM306.389671 329.249479h45.634319v45.634319h-45.634319zM306.389671 283.529863h45.634319v45.719616h-45.634319zM306.389671 237.810246h45.634319v45.719617h-45.634319z" fill="#FDA8C7" p-id="31751"></path><path d="M306.389671 192.175927h45.634319v45.634319h-45.634319z" fill="#EE7D99" p-id="31752"></path><path d="M306.389671 146.45631h45.634319v45.719617h-45.634319z" fill="#58212F" p-id="31753"></path><path d="M260.670054 877.458392h45.719617v45.719617h-45.719617z" fill="#360C18" p-id="31754"></path><path d="M260.670054 831.824073h45.719617v45.634319h-45.719617z" fill="#EA4A6E" p-id="31755"></path><path d="M260.670054 786.104456h45.719617v45.719617h-45.719617zM260.670054 740.38484h45.719617v45.719616h-45.719617z" fill="#FF6084" p-id="31756"></path><path d="M260.670054 694.750521h45.719617v45.634319h-45.719617z" fill="#EB7B9B" p-id="31757"></path><path d="M260.670054 649.030904h45.719617v45.719617h-45.719617z" fill="#FA9BB9" p-id="31758"></path><path d="M260.670054 603.311287h45.719617v45.719617h-45.719617z" fill="#FDA8C7" p-id="31759"></path><path d="M260.670054 557.676968h45.719617v45.634319h-45.719617z" fill="#FA9BB9" p-id="31760"></path><path d="M260.670054 511.957351h45.719617v45.719617h-45.719617zM260.670054 466.323032h45.719617v45.634319h-45.719617zM260.670054 420.603415h45.719617v45.719617h-45.719617zM260.670054 374.883798h45.719617v45.719617h-45.719617zM260.670054 329.249479h45.719617v45.634319h-45.719617zM260.670054 283.529863h45.719617v45.719616h-45.719617zM260.670054 237.810246h45.719617v45.719617h-45.719617z" fill="#FDA8C7" p-id="31761"></path><path d="M260.670054 192.175927h45.719617v45.634319h-45.719617zM260.670054 146.45631h45.719617v45.719617h-45.719617z" fill="#58212F" p-id="31762"></path><path d="M214.950437 877.458392h45.719617v45.719617H214.950437z" fill="#360C18" p-id="31763"></path><path d="M214.950437 831.824073h45.719617v45.634319H214.950437z" fill="#EA4A6E" p-id="31764"></path><path d="M214.950437 786.104456h45.719617v45.719617H214.950437z" fill="#FF6084" p-id="31765"></path><path d="M214.950437 740.38484h45.719617v45.719616H214.950437z" fill="#EB7B9B" p-id="31766"></path><path d="M214.950437 694.750521h45.719617v45.634319H214.950437z" fill="#EA4A6E" p-id="31767"></path><path d="M214.950437 649.030904h45.719617v45.719617H214.950437zM214.950437 603.311287h45.719617v45.719617H214.950437z" fill="#FA9BB9" p-id="31768"></path><path d="M214.950437 557.676968h45.719617v45.634319H214.950437z" fill="#FDA8C7" p-id="31769"></path><path d="M214.950437 511.957351h45.719617v45.719617H214.950437zM214.950437 466.323032h45.719617v45.634319H214.950437z" fill="#FDA8C7" p-id="31770"></path><path d="M214.950437 420.603415h45.719617v45.719617H214.950437z" fill="#FA9BB9" p-id="31771"></path><path d="M214.950437 374.883798h45.719617v45.719617H214.950437zM214.950437 329.249479h45.719617v45.634319H214.950437zM214.950437 283.529863h45.719617v45.719616H214.950437z" fill="#FDA8C7" p-id="31772"></path><path d="M214.950437 237.810246h45.719617v45.719617H214.950437z" fill="#58212F" p-id="31773"></path><path d="M214.950437 192.175927h45.719617v45.634319H214.950437z" fill="#58212F" p-id="31774"></path><path d="M169.316118 877.458392h45.634319v45.719617h-45.634319z" fill="#360C18" p-id="31775"></path><path d="M169.316118 831.824073h45.634319v45.634319h-45.634319z" fill="#EA4A6E" p-id="31776"></path><path d="M169.316118 786.104456h45.634319v45.719617h-45.634319z" fill="#FF6084" p-id="31777"></path><path d="M169.316118 740.38484h45.634319v45.719616h-45.634319z" fill="#FDFFFE" p-id="31778"></path><path d="M169.316118 694.750521h45.634319v45.634319h-45.634319z" fill="#EA4A6E" p-id="31779"></path><path d="M169.316118 649.030904h45.634319v45.719617h-45.634319z" fill="#EB7B9B" p-id="31780"></path><path d="M169.316118 603.311287h45.634319v45.719617h-45.634319z" fill="#FA9BB9" p-id="31781"></path><path d="M169.316118 557.676968h45.634319v45.634319h-45.634319z" fill="#FDA8C7" p-id="31782"></path><path d="M169.316118 511.957351h45.634319v45.719617h-45.634319zM169.316118 466.323032h45.634319v45.634319h-45.634319zM169.316118 420.603415h45.634319v45.719617h-45.634319z" fill="#FDA8C7" p-id="31783"></path><path d="M169.316118 374.883798h45.634319v45.719617h-45.634319z" fill="#FA9BB9" p-id="31784"></path><path d="M169.316118 329.249479h45.634319v45.634319h-45.634319zM169.316118 283.529863h45.634319v45.719616h-45.634319zM169.316118 237.810246h45.634319v45.719617h-45.634319z" fill="#58212F" p-id="31785"></path><path d="M123.596501 877.458392h45.719617v45.719617h-45.719617z" fill="#360C18" p-id="31786"></path><path d="M123.596501 831.824073h45.719617v45.634319h-45.719617z" fill="#EA4A6E" p-id="31787"></path><path d="M123.596501 786.104456h45.719617v45.719617h-45.719617z" fill="#FF6084" p-id="31788"></path><path d="M123.596501 740.38484h45.719617v45.719616h-45.719617z" fill="#EB7B9B" p-id="31789"></path><path d="M123.596501 694.750521h45.719617v45.634319h-45.719617zM123.596501 649.030904h45.719617v45.719617h-45.719617z" fill="#360C18" p-id="31790"></path><path d="M123.596501 603.311287h45.719617v45.719617h-45.719617z" fill="#EB7B9B" p-id="31791"></path><path d="M123.596501 557.676968h45.719617v45.634319h-45.719617z" fill="#FA9BB9" p-id="31792"></path><path d="M123.596501 511.957351h45.719617v45.719617h-45.719617zM123.596501 466.323032h45.719617v45.634319h-45.719617z" fill="#FDA8C7" p-id="31793"></path><path d="M123.596501 420.603415h45.719617v45.719617h-45.719617z" fill="#FA9BB9" p-id="31794"></path><path d="M123.596501 374.883798h45.719617v45.719617h-45.719617z" fill="#360C18" p-id="31795"></path><path d="M123.596501 329.249479h45.719617v45.634319h-45.719617z" fill="#58212F" p-id="31796"></path><path d="M77.876885 877.458392h45.719616v45.719617H77.876885z" fill="#360C18" p-id="31797"></path><path d="M77.876885 831.824073h45.719616v45.634319H77.876885zM77.876885 786.104456h45.719616v45.719617H77.876885z" fill="#EA4A6E" p-id="31798"></path><path d="M77.876885 740.38484h45.719616v45.719616H77.876885zM77.876885 649.030904h45.719616v45.719617H77.876885z" fill="#360C18" p-id="31799"></path><path d="M77.876885 603.311287h45.719616v45.719617H77.876885z" fill="#EB7B9B" p-id="31800"></path><path d="M77.876885 557.676968h45.719616v45.634319H77.876885z" fill="#FA9BB9" p-id="31801"></path><path d="M77.876885 511.957351h45.719616v45.719617H77.876885z" fill="#FA9BB9" p-id="31802"></path><path d="M77.876885 466.323032h45.719616v45.634319H77.876885z" fill="#FDA8C7" p-id="31803"></path><path d="M77.876885 420.603415h45.719616v45.719617H77.876885zM77.876885 374.883798h45.719616v45.719617H77.876885zM32.242566 831.824073h45.634319v45.634319H32.242566zM32.242566 786.104456h45.634319v45.719617H32.242566zM32.242566 603.311287h45.634319v45.719617H32.242566zM32.242566 557.676968h45.634319v45.634319H32.242566z" fill="#360C18" p-id="31804"></path><path d="M32.242566 511.957351h45.634319v45.719617H32.242566zM32.242566 466.323032h45.634319v45.634319H32.242566z" fill="#360C18" p-id="31805"></path></svg>